<mxfile><diagram id="wNTnCZcAR0fGuFocDA9f" name="Page-1"><mxGraphModel dx="1762" dy="1019" grid="1" gridSize="10" guides="1" tooltips="1" connect="1" arrows="1" fold="1" page="1" pageScale="1" pageWidth="850" pageHeight="1100" math="0" shadow="0"><root><mxCell id="0"/><mxCell id="1" parent="0"/><mxCell id="2" value="input" style="rounded=0;whiteSpace=wrap;html=1;" vertex="1" parent="1"><mxGeometry x="30" y="460" width="60" height="60" as="geometry"/></mxCell><mxCell id="3" value="relu" style="rounded=0;whiteSpace=wrap;html=1;" vertex="1" parent="1"><mxGeometry x="210" y="370" width="60" height="60" as="geometry"/></mxCell><mxCell id="4" value="sum" style="rounded=0;whiteSpace=wrap;html=1;" vertex="1" parent="1"><mxGeometry x="390" y="460" width="60" height="60" as="geometry"/></mxCell><mxCell id="5" value="relu" style="rounded=0;whiteSpace=wrap;html=1;" vertex="1" parent="1"><mxGeometry x="210" y="550" width="60" height="60" as="geometry"/></mxCell><mxCell id="6" value="relu" style="rounded=0;whiteSpace=wrap;html=1;" vertex="1" parent="1"><mxGeometry x="210" y="460" width="60" height="60" as="geometry"/></mxCell><mxCell id="9" value="" style="shape=flexArrow;endArrow=classic;html=1;entryX=-0.05;entryY=0.633;entryDx=0;entryDy=0;entryPerimeter=0;" edge="1" parent="1" target="3"><mxGeometry width="50" height="50" relative="1" as="geometry"><mxPoint x="90" y="490" as="sourcePoint"/><mxPoint x="140" y="440" as="targetPoint"/></mxGeometry></mxCell><mxCell id="18" value="w00, b00" style="edgeLabel;html=1;align=center;verticalAlign=middle;resizable=0;points=[];" vertex="1" connectable="0" parent="9"><mxGeometry x="0.0446" relative="1" as="geometry"><mxPoint as="offset"/></mxGeometry></mxCell><mxCell id="10" value="" style="shape=flexArrow;endArrow=classic;html=1;entryX=0;entryY=0.5;entryDx=0;entryDy=0;" edge="1" parent="1" target="6"><mxGeometry width="50" height="50" relative="1" as="geometry"><mxPoint x="90" y="492.02" as="sourcePoint"/><mxPoint x="207" y="410" as="targetPoint"/></mxGeometry></mxCell><mxCell id="19" value="w10, b10" style="edgeLabel;html=1;align=center;verticalAlign=middle;resizable=0;points=[];" vertex="1" connectable="0" parent="10"><mxGeometry x="-0.1014" y="-5" relative="1" as="geometry"><mxPoint as="offset"/></mxGeometry></mxCell><mxCell id="11" value="" style="shape=flexArrow;endArrow=classic;html=1;entryX=0;entryY=0.5;entryDx=0;entryDy=0;" edge="1" parent="1" target="5"><mxGeometry width="50" height="50" relative="1" as="geometry"><mxPoint x="90" y="492.02" as="sourcePoint"/><mxPoint x="207" y="410" as="targetPoint"/></mxGeometry></mxCell><mxCell id="20" value="w20, b20" style="edgeLabel;html=1;align=center;verticalAlign=middle;resizable=0;points=[];" vertex="1" connectable="0" parent="11"><mxGeometry x="-0.0673" relative="1" as="geometry"><mxPoint as="offset"/></mxGeometry></mxCell><mxCell id="12" value="" style="shape=flexArrow;endArrow=classic;html=1;" edge="1" parent="1"><mxGeometry width="50" height="50" relative="1" as="geometry"><mxPoint x="270" y="580" as="sourcePoint"/><mxPoint x="380" y="510" as="targetPoint"/></mxGeometry></mxCell><mxCell id="23" value="w21, b21" style="edgeLabel;html=1;align=center;verticalAlign=middle;resizable=0;points=[];" vertex="1" connectable="0" parent="12"><mxGeometry x="-0.2329" y="-3" relative="1" as="geometry"><mxPoint as="offset"/></mxGeometry></mxCell><mxCell id="13" value="" style="shape=flexArrow;endArrow=classic;html=1;" edge="1" parent="1"><mxGeometry width="50" height="50" relative="1" as="geometry"><mxPoint x="270" y="490" as="sourcePoint"/><mxPoint x="380" y="490" as="targetPoint"/></mxGeometry></mxCell><mxCell id="22" value="w11, b11" style="edgeLabel;html=1;align=center;verticalAlign=middle;resizable=0;points=[];" vertex="1" connectable="0" parent="13"><mxGeometry x="-0.2182" y="-4" relative="1" as="geometry"><mxPoint as="offset"/></mxGeometry></mxCell><mxCell id="14" value="" style="shape=flexArrow;endArrow=classic;html=1;" edge="1" parent="1"><mxGeometry width="50" height="50" relative="1" as="geometry"><mxPoint x="270" y="400" as="sourcePoint"/><mxPoint x="380" y="470" as="targetPoint"/></mxGeometry></mxCell><mxCell id="21" value="w01, bo1" style="edgeLabel;html=1;align=center;verticalAlign=middle;resizable=0;points=[];" vertex="1" connectable="0" parent="14"><mxGeometry x="-0.1282" y="-2" relative="1" as="geometry"><mxPoint as="offset"/></mxGeometry></mxCell><mxCell id="15" value="relu" style="rounded=0;whiteSpace=wrap;html=1;" vertex="1" parent="1"><mxGeometry x="530" y="460" width="60" height="60" as="geometry"/></mxCell><mxCell id="17" value="" style="shape=flexArrow;endArrow=classic;html=1;" edge="1" parent="1" target="15"><mxGeometry width="50" height="50" relative="1" as="geometry"><mxPoint x="450" y="490" as="sourcePoint"/><mxPoint x="500" y="440" as="targetPoint"/></mxGeometry></mxCell><mxCell id="24" value="b_final" style="edgeLabel;html=1;align=center;verticalAlign=middle;resizable=0;points=[];" vertex="1" connectable="0" parent="17"><mxGeometry x="-0.05" y="-2" relative="1" as="geometry"><mxPoint as="offset"/></mxGeometry></mxCell><mxCell id="25" value="output" style="rounded=0;whiteSpace=wrap;html=1;" vertex="1" parent="1"><mxGeometry x="670" y="460" width="60" height="60" as="geometry"/></mxCell><mxCell id="28" value="" style="shape=flexArrow;endArrow=classic;html=1;" edge="1" parent="1" target="25"><mxGeometry width="50" height="50" relative="1" as="geometry"><mxPoint x="590" y="490" as="sourcePoint"/><mxPoint x="640" y="440" as="targetPoint"/></mxGeometry></mxCell></root></mxGraphModel></diagram></mxfile>